<?xml version="1.0" standalone="no"?>
<!DOCTYPE svg>
<svg version="1.0" xmlns="http://www.w3.org/2000/svg"
 width="50pt" height="50pt" viewBox="0 0 50 50"
 preserveAspectRatio="xMidYMid meet">

<g transform="translate(0,50) scale(0.1,-0.1)"
fill="#000000" stroke="none">
<path d="M283 349 l-103 -69 0 65 0 65 -40 0 -40 0 0 -160 0 -160 40 0 40 0 0
65 0 65 105 -70 105 -70 0 170 c0 93 -1 170 -2 169 -2 0 -49 -32 -105 -70z
m-123 -99 c0 -133 -1 -140 -20 -140 -19 0 -20 7 -20 140 0 133 1 140 20 140
19 0 20 -7 20 -140z m208 -64 l-3 -64 -90 59 c-50 32 -90 63 -90 69 0 6 40 37
90 69 l90 59 3 -64 c2 -35 2 -93 0 -128z"/>
</g>
</svg>
